<svg xmlns="http://www.w3.org/2000/svg" viewBox="0 0 1200 630" width="1200" height="630" role="img" aria-labelledby="t">
<title id="t">BlueCore: EAP-TLS on Cisco ISE 3.5, what the defaults let through, tested without a single switch</title>
<defs>
  <filter id="glow" x="-20%" y="-40%" width="140%" height="180%">
    <feGaussianBlur stdDeviation="6" result="b"/>
    <feMerge><feMergeNode in="b"/><feMergeNode in="SourceGraphic"/></feMerge>
  </filter>
  <filter id="soft" x="-10%" y="-40%" width="120%" height="180%">
    <feGaussianBlur stdDeviation="2.5" result="b"/>
    <feMerge><feMergeNode in="b"/><feMergeNode in="SourceGraphic"/></feMerge>
  </filter>
  <radialGradient id="vignette" cx="30%" cy="50%" r="75%">
    <stop offset="0" stop-color="#020610" stop-opacity="0.94"/>
    <stop offset="0.55" stop-color="#020610" stop-opacity="0.72"/>
    <stop offset="1" stop-color="#020610" stop-opacity="0.2"/>
  </radialGradient>
  <linearGradient id="topglow" x1="0" y1="0" x2="0" y2="1">
    <stop offset="0" stop-color="#2b6bff" stop-opacity="0.16"/>
    <stop offset="1" stop-color="#2b6bff" stop-opacity="0"/>
  </linearGradient>
  <pattern id="scan" width="4" height="4" patternUnits="userSpaceOnUse">
    <rect width="4" height="2" fill="#000" fill-opacity="0"/>
    <rect y="2" width="4" height="2" fill="#000" fill-opacity="0.18"/>
  </pattern>
</defs>
<style>
  text { font-family: 'Courier New', Courier, 'Liberation Mono', monospace; }
</style>
<rect width="1200" height="630" fill="#020610"/>
<g font-size="18" font-family="Courier New, monospace">
<text x="20" y="180" fill="#dff0ff" fill-opacity="0.75">ヨ</text>
<text x="20" y="162" fill="#2b6bff" fill-opacity="0.44">*</text>
<text x="20" y="144" fill="#2b6bff" fill-opacity="0.39">ユ</text>
<text x="20" y="126" fill="#2b6bff" fill-opacity="0.33">1</text>
<text x="20" y="108" fill="#2b6bff" fill-opacity="0.28">ホ</text>
<text x="20" y="90" fill="#2b6bff" fill-opacity="0.22">ニ</text>
<text x="20" y="72" fill="#2b6bff" fill-opacity="0.17">ニ</text>
<text x="20" y="54" fill="#2b6bff" fill-opacity="0.11">ユ</text>
<text x="20" y="36" fill="#2b6bff" fill-opacity="0.06">:</text>
<text x="110" y="342" fill="#dff0ff" fill-opacity="0.75">ロ</text>
<text x="110" y="324" fill="#2b6bff" fill-opacity="0.46">C</text>
<text x="110" y="306" fill="#2b6bff" fill-opacity="0.42">9</text>
<text x="110" y="288" fill="#2b6bff" fill-opacity="0.38">ニ</text>
<text x="110" y="270" fill="#2b6bff" fill-opacity="0.33">モ</text>
<text x="110" y="252" fill="#2b6bff" fill-opacity="0.29">イ</text>
<text x="110" y="234" fill="#2b6bff" fill-opacity="0.25">コ</text>
<text x="110" y="216" fill="#2b6bff" fill-opacity="0.21">マ</text>
<text x="110" y="198" fill="#2b6bff" fill-opacity="0.17">ミ</text>
<text x="110" y="180" fill="#2b6bff" fill-opacity="0.12">ツ</text>
<text x="110" y="162" fill="#2b6bff" fill-opacity="0.08">リ</text>
<text x="110" y="144" fill="#2b6bff" fill-opacity="0.05">ク</text>
<text x="146" y="270" fill="#dff0ff" fill-opacity="0.75">コ</text>
<text x="146" y="252" fill="#2b6bff" fill-opacity="0.48">チ</text>
<text x="146" y="234" fill="#2b6bff" fill-opacity="0.45">ニ</text>
<text x="146" y="216" fill="#2b6bff" fill-opacity="0.43">ハ</text>
<text x="146" y="198" fill="#2b6bff" fill-opacity="0.40">&lt;</text>
<text x="146" y="180" fill="#2b6bff" fill-opacity="0.38">カ</text>
<text x="146" y="162" fill="#2b6bff" fill-opacity="0.36">フ</text>
<text x="146" y="144" fill="#2b6bff" fill-opacity="0.33">8</text>
<text x="146" y="126" fill="#2b6bff" fill-opacity="0.31">シ</text>
<text x="146" y="108" fill="#2b6bff" fill-opacity="0.29">:</text>
<text x="146" y="90" fill="#2b6bff" fill-opacity="0.26">ル</text>
<text x="146" y="72" fill="#2b6bff" fill-opacity="0.24">ノ</text>
<text x="146" y="54" fill="#2b6bff" fill-opacity="0.21">メ</text>
<text x="146" y="36" fill="#2b6bff" fill-opacity="0.19">ン</text>
<text x="146" y="18" fill="#2b6bff" fill-opacity="0.17">ク</text>
<text x="146" y="0" fill="#2b6bff" fill-opacity="0.14">E</text>
<text x="164" y="648" fill="#2b6bff" fill-opacity="0.32">ユ</text>
<text x="164" y="630" fill="#2b6bff" fill-opacity="0.29">+</text>
<text x="164" y="612" fill="#2b6bff" fill-opacity="0.25">シ</text>
<text x="164" y="594" fill="#2b6bff" fill-opacity="0.21">カ</text>
<text x="164" y="576" fill="#2b6bff" fill-opacity="0.18">ヌ</text>
<text x="164" y="558" fill="#2b6bff" fill-opacity="0.14">ム</text>
<text x="164" y="540" fill="#2b6bff" fill-opacity="0.11">ナ</text>
<text x="164" y="522" fill="#2b6bff" fill-opacity="0.07">カ</text>
<text x="164" y="504" fill="#2b6bff" fill-opacity="0.05">ス</text>
<text x="182" y="144" fill="#dff0ff" fill-opacity="0.75">ス</text>
<text x="182" y="126" fill="#2b6bff" fill-opacity="0.44">ヒ</text>
<text x="182" y="108" fill="#2b6bff" fill-opacity="0.38">セ</text>
<text x="182" y="90" fill="#2b6bff" fill-opacity="0.31">ツ</text>
<text x="182" y="72" fill="#2b6bff" fill-opacity="0.25">7</text>
<text x="182" y="54" fill="#2b6bff" fill-opacity="0.19">イ</text>
<text x="182" y="36" fill="#2b6bff" fill-opacity="0.12">F</text>
<text x="182" y="18" fill="#2b6bff" fill-opacity="0.06">&gt;</text>
<text x="254" y="54" fill="#dff0ff" fill-opacity="0.75">リ</text>
<text x="254" y="36" fill="#2b6bff" fill-opacity="0.46">9</text>
<text x="254" y="18" fill="#2b6bff" fill-opacity="0.42">C</text>
<text x="254" y="0" fill="#2b6bff" fill-opacity="0.38">モ</text>
<text x="272" y="180" fill="#dff0ff" fill-opacity="0.75">C</text>
<text x="272" y="162" fill="#2b6bff" fill-opacity="0.48">タ</text>
<text x="272" y="144" fill="#2b6bff" fill-opacity="0.45">イ</text>
<text x="272" y="126" fill="#2b6bff" fill-opacity="0.43">6</text>
<text x="272" y="108" fill="#2b6bff" fill-opacity="0.41">3</text>
<text x="272" y="90" fill="#2b6bff" fill-opacity="0.39">キ</text>
<text x="272" y="72" fill="#2b6bff" fill-opacity="0.36">ワ</text>
<text x="272" y="54" fill="#2b6bff" fill-opacity="0.34">キ</text>
<text x="272" y="36" fill="#2b6bff" fill-opacity="0.32">ラ</text>
<text x="272" y="18" fill="#2b6bff" fill-opacity="0.30">4</text>
<text x="272" y="0" fill="#2b6bff" fill-opacity="0.27">サ</text>
<text x="308" y="648" fill="#2b6bff" fill-opacity="0.39">F</text>
<text x="308" y="630" fill="#2b6bff" fill-opacity="0.37">ス</text>
<text x="308" y="612" fill="#2b6bff" fill-opacity="0.35">&lt;</text>
<text x="308" y="594" fill="#2b6bff" fill-opacity="0.33">8</text>
<text x="308" y="576" fill="#2b6bff" fill-opacity="0.30">リ</text>
<text x="308" y="558" fill="#2b6bff" fill-opacity="0.28">A</text>
<text x="308" y="540" fill="#2b6bff" fill-opacity="0.26">ヒ</text>
<text x="308" y="522" fill="#2b6bff" fill-opacity="0.24">+</text>
<text x="308" y="504" fill="#2b6bff" fill-opacity="0.22">ナ</text>
<text x="308" y="486" fill="#2b6bff" fill-opacity="0.20">セ</text>
<text x="308" y="468" fill="#2b6bff" fill-opacity="0.17">ン</text>
<text x="308" y="450" fill="#2b6bff" fill-opacity="0.15">ケ</text>
<text x="308" y="432" fill="#2b6bff" fill-opacity="0.13">コ</text>
<text x="308" y="414" fill="#2b6bff" fill-opacity="0.11">ケ</text>
<text x="308" y="396" fill="#2b6bff" fill-opacity="0.09">セ</text>
<text x="308" y="378" fill="#2b6bff" fill-opacity="0.07">サ</text>
<text x="308" y="360" fill="#2b6bff" fill-opacity="0.05">B</text>
<text x="308" y="342" fill="#2b6bff" fill-opacity="0.05">9</text>
<text x="344" y="18" fill="#dff0ff" fill-opacity="0.75">ル</text>
<text x="344" y="0" fill="#2b6bff" fill-opacity="0.47">&gt;</text>
<text x="416" y="648" fill="#2b6bff" fill-opacity="0.48">レ</text>
<text x="416" y="630" fill="#2b6bff" fill-opacity="0.46">フ</text>
<text x="416" y="612" fill="#2b6bff" fill-opacity="0.43">ケ</text>
<text x="416" y="594" fill="#2b6bff" fill-opacity="0.41">E</text>
<text x="416" y="576" fill="#2b6bff" fill-opacity="0.39">7</text>
<text x="416" y="558" fill="#2b6bff" fill-opacity="0.37">5</text>
<text x="416" y="540" fill="#2b6bff" fill-opacity="0.35">7</text>
<text x="416" y="522" fill="#2b6bff" fill-opacity="0.33">*</text>
<text x="416" y="504" fill="#2b6bff" fill-opacity="0.30">ヌ</text>
<text x="416" y="486" fill="#2b6bff" fill-opacity="0.28">&gt;</text>
<text x="416" y="468" fill="#2b6bff" fill-opacity="0.26">ン</text>
<text x="416" y="450" fill="#2b6bff" fill-opacity="0.24">ワ</text>
<text x="416" y="432" fill="#2b6bff" fill-opacity="0.22">E</text>
<text x="416" y="414" fill="#2b6bff" fill-opacity="0.20">サ</text>
<text x="416" y="396" fill="#2b6bff" fill-opacity="0.17">ウ</text>
<text x="416" y="378" fill="#2b6bff" fill-opacity="0.15">D</text>
<text x="416" y="360" fill="#2b6bff" fill-opacity="0.13">3</text>
<text x="416" y="342" fill="#2b6bff" fill-opacity="0.11">ヌ</text>
<text x="416" y="324" fill="#2b6bff" fill-opacity="0.09">ロ</text>
<text x="416" y="306" fill="#2b6bff" fill-opacity="0.07">ヒ</text>
<text x="416" y="288" fill="#2b6bff" fill-opacity="0.05">3</text>
<text x="416" y="270" fill="#2b6bff" fill-opacity="0.05">エ</text>
<text x="434" y="540" fill="#dff0ff" fill-opacity="0.75">2</text>
<text x="434" y="522" fill="#2b6bff" fill-opacity="0.47">コ</text>
<text x="434" y="504" fill="#2b6bff" fill-opacity="0.43">ケ</text>
<text x="434" y="486" fill="#2b6bff" fill-opacity="0.40">0</text>
<text x="434" y="468" fill="#2b6bff" fill-opacity="0.37">ラ</text>
<text x="434" y="450" fill="#2b6bff" fill-opacity="0.33">2</text>
<text x="434" y="432" fill="#2b6bff" fill-opacity="0.30">*</text>
<text x="434" y="414" fill="#2b6bff" fill-opacity="0.27">D</text>
<text x="434" y="396" fill="#2b6bff" fill-opacity="0.23">サ</text>
<text x="434" y="378" fill="#2b6bff" fill-opacity="0.20">B</text>
<text x="434" y="360" fill="#2b6bff" fill-opacity="0.17">ヌ</text>
<text x="434" y="342" fill="#2b6bff" fill-opacity="0.13">ハ</text>
<text x="434" y="324" fill="#2b6bff" fill-opacity="0.10">ヌ</text>
<text x="434" y="306" fill="#2b6bff" fill-opacity="0.07">0</text>
<text x="434" y="288" fill="#2b6bff" fill-opacity="0.05">6</text>
<text x="452" y="36" fill="#dff0ff" fill-opacity="0.75">オ</text>
<text x="452" y="18" fill="#2b6bff" fill-opacity="0.46">ヘ</text>
<text x="452" y="0" fill="#2b6bff" fill-opacity="0.42">7</text>
<text x="506" y="198" fill="#dff0ff" fill-opacity="0.75">ソ</text>
<text x="506" y="180" fill="#2b6bff" fill-opacity="0.45">ワ</text>
<text x="506" y="162" fill="#2b6bff" fill-opacity="0.41">メ</text>
<text x="506" y="144" fill="#2b6bff" fill-opacity="0.36">モ</text>
<text x="506" y="126" fill="#2b6bff" fill-opacity="0.32">ノ</text>
<text x="506" y="108" fill="#2b6bff" fill-opacity="0.27">テ</text>
<text x="506" y="90" fill="#2b6bff" fill-opacity="0.23">ユ</text>
<text x="506" y="72" fill="#2b6bff" fill-opacity="0.18">B</text>
<text x="506" y="54" fill="#2b6bff" fill-opacity="0.14">ハ</text>
<text x="506" y="36" fill="#2b6bff" fill-opacity="0.09">6</text>
<text x="506" y="18" fill="#2b6bff" fill-opacity="0.05">2</text>
<text x="578" y="540" fill="#dff0ff" fill-opacity="0.75">&gt;</text>
<text x="578" y="522" fill="#2b6bff" fill-opacity="0.47">ユ</text>
<text x="578" y="504" fill="#2b6bff" fill-opacity="0.45">レ</text>
<text x="578" y="486" fill="#2b6bff" fill-opacity="0.42">*</text>
<text x="578" y="468" fill="#2b6bff" fill-opacity="0.39">1</text>
<text x="578" y="450" fill="#2b6bff" fill-opacity="0.37">1</text>
<text x="578" y="432" fill="#2b6bff" fill-opacity="0.34">C</text>
<text x="578" y="414" fill="#2b6bff" fill-opacity="0.32">+</text>
<text x="578" y="396" fill="#2b6bff" fill-opacity="0.29">ス</text>
<text x="578" y="378" fill="#2b6bff" fill-opacity="0.26">ウ</text>
<text x="578" y="360" fill="#2b6bff" fill-opacity="0.24">ソ</text>
<text x="578" y="342" fill="#2b6bff" fill-opacity="0.21">ミ</text>
<text x="578" y="324" fill="#2b6bff" fill-opacity="0.18">テ</text>
<text x="578" y="306" fill="#2b6bff" fill-opacity="0.16">ニ</text>
<text x="578" y="288" fill="#2b6bff" fill-opacity="0.13">ン</text>
<text x="578" y="270" fill="#2b6bff" fill-opacity="0.11">ク</text>
<text x="578" y="252" fill="#2b6bff" fill-opacity="0.08">モ</text>
<text x="578" y="234" fill="#2b6bff" fill-opacity="0.05">C</text>
<text x="578" y="216" fill="#2b6bff" fill-opacity="0.05">ニ</text>
<text x="596" y="36" fill="#dff0ff" fill-opacity="0.75">ソ</text>
<text x="596" y="18" fill="#2b6bff" fill-opacity="0.48">E</text>
<text x="596" y="0" fill="#2b6bff" fill-opacity="0.45">シ</text>
<text x="614" y="90" fill="#dff0ff" fill-opacity="0.75">テ</text>
<text x="614" y="72" fill="#2b6bff" fill-opacity="0.47">イ</text>
<text x="614" y="54" fill="#2b6bff" fill-opacity="0.43">オ</text>
<text x="614" y="36" fill="#2b6bff" fill-opacity="0.40">テ</text>
<text x="614" y="18" fill="#2b6bff" fill-opacity="0.37">ル</text>
<text x="614" y="0" fill="#2b6bff" fill-opacity="0.33">D</text>
<text x="740" y="216" fill="#dff0ff" fill-opacity="0.75">ホ</text>
<text x="740" y="198" fill="#2b6bff" fill-opacity="0.42">イ</text>
<text x="740" y="180" fill="#2b6bff" fill-opacity="0.33">8</text>
<text x="740" y="162" fill="#2b6bff" fill-opacity="0.25">リ</text>
<text x="740" y="144" fill="#2b6bff" fill-opacity="0.17">&gt;</text>
<text x="740" y="126" fill="#2b6bff" fill-opacity="0.08">ツ</text>
<text x="776" y="144" fill="#dff0ff" fill-opacity="0.75">イ</text>
<text x="776" y="126" fill="#2b6bff" fill-opacity="0.46">ラ</text>
<text x="776" y="108" fill="#2b6bff" fill-opacity="0.43">ケ</text>
<text x="776" y="90" fill="#2b6bff" fill-opacity="0.39">セ</text>
<text x="776" y="72" fill="#2b6bff" fill-opacity="0.36">B</text>
<text x="776" y="54" fill="#2b6bff" fill-opacity="0.32">ヌ</text>
<text x="776" y="36" fill="#2b6bff" fill-opacity="0.29">ラ</text>
<text x="776" y="18" fill="#2b6bff" fill-opacity="0.25">2</text>
<text x="776" y="0" fill="#2b6bff" fill-opacity="0.21">サ</text>
<text x="830" y="576" fill="#dff0ff" fill-opacity="0.75">S</text>
<text x="830" y="558" fill="#2b6bff" fill-opacity="0.48">L</text>
<text x="830" y="540" fill="#2b6bff" fill-opacity="0.46">T</text>
<text x="830" y="522" fill="#2b6bff" fill-opacity="0.44">-</text>
<text x="830" y="504" fill="#2b6bff" fill-opacity="0.42">P</text>
<text x="830" y="486" fill="#2b6bff" fill-opacity="0.40">A</text>
<text x="830" y="468" fill="#2b6bff" fill-opacity="0.38">E</text>
<text x="830" y="450" fill="#2b6bff" fill-opacity="0.37">*</text>
<text x="830" y="432" fill="#2b6bff" fill-opacity="0.35">ホ</text>
<text x="830" y="414" fill="#2b6bff" fill-opacity="0.33">1</text>
<text x="830" y="396" fill="#2b6bff" fill-opacity="0.31">7</text>
<text x="830" y="378" fill="#2b6bff" fill-opacity="0.29">ヲ</text>
<text x="830" y="360" fill="#2b6bff" fill-opacity="0.27">ホ</text>
<text x="830" y="342" fill="#2b6bff" fill-opacity="0.25">ユ</text>
<text x="830" y="324" fill="#2b6bff" fill-opacity="0.23">8</text>
<text x="830" y="306" fill="#2b6bff" fill-opacity="0.21">E</text>
<text x="830" y="288" fill="#2b6bff" fill-opacity="0.19">ロ</text>
<text x="830" y="270" fill="#2b6bff" fill-opacity="0.17">4</text>
<text x="830" y="252" fill="#2b6bff" fill-opacity="0.15">ロ</text>
<text x="830" y="234" fill="#2b6bff" fill-opacity="0.13">=</text>
<text x="830" y="216" fill="#2b6bff" fill-opacity="0.12">&gt;</text>
<text x="830" y="198" fill="#2b6bff" fill-opacity="0.10">6</text>
<text x="830" y="180" fill="#2b6bff" fill-opacity="0.08">ウ</text>
<text x="830" y="162" fill="#2b6bff" fill-opacity="0.06">C</text>
<text x="830" y="144" fill="#2b6bff" fill-opacity="0.05">ユ</text>
<text x="830" y="126" fill="#2b6bff" fill-opacity="0.05">ラ</text>
<text x="920" y="648" fill="#dff0ff" fill-opacity="0.75">ホ</text>
<text x="920" y="630" fill="#2b6bff" fill-opacity="0.48">4</text>
<text x="920" y="612" fill="#2b6bff" fill-opacity="0.46">サ</text>
<text x="920" y="594" fill="#2b6bff" fill-opacity="0.44">イ</text>
<text x="920" y="576" fill="#2b6bff" fill-opacity="0.42">ヤ</text>
<text x="920" y="558" fill="#2b6bff" fill-opacity="0.40">F</text>
<text x="920" y="540" fill="#2b6bff" fill-opacity="0.38">+</text>
<text x="920" y="522" fill="#2b6bff" fill-opacity="0.36">&gt;</text>
<text x="920" y="504" fill="#2b6bff" fill-opacity="0.34">ア</text>
<text x="920" y="486" fill="#2b6bff" fill-opacity="0.32">ツ</text>
<text x="920" y="468" fill="#2b6bff" fill-opacity="0.30">ヤ</text>
<text x="920" y="450" fill="#2b6bff" fill-opacity="0.28">6</text>
<text x="920" y="432" fill="#2b6bff" fill-opacity="0.26">ス</text>
<text x="920" y="414" fill="#2b6bff" fill-opacity="0.24">4</text>
<text x="920" y="396" fill="#2b6bff" fill-opacity="0.22">ヲ</text>
<text x="920" y="378" fill="#2b6bff" fill-opacity="0.20">モ</text>
<text x="920" y="360" fill="#2b6bff" fill-opacity="0.18">モ</text>
<text x="920" y="342" fill="#2b6bff" fill-opacity="0.16">1</text>
<text x="920" y="324" fill="#2b6bff" fill-opacity="0.14">ソ</text>
<text x="920" y="306" fill="#2b6bff" fill-opacity="0.12">ハ</text>
<text x="920" y="288" fill="#2b6bff" fill-opacity="0.10">シ</text>
<text x="920" y="270" fill="#2b6bff" fill-opacity="0.08">メ</text>
<text x="920" y="252" fill="#2b6bff" fill-opacity="0.06">オ</text>
<text x="920" y="234" fill="#2b6bff" fill-opacity="0.05">E</text>
<text x="920" y="216" fill="#2b6bff" fill-opacity="0.05">5</text>
<text x="956" y="360" fill="#dff0ff" fill-opacity="0.75">+</text>
<text x="956" y="342" fill="#2b6bff" fill-opacity="0.48">ニ</text>
<text x="956" y="324" fill="#2b6bff" fill-opacity="0.46">9</text>
<text x="956" y="306" fill="#2b6bff" fill-opacity="0.44">ネ</text>
<text x="956" y="288" fill="#2b6bff" fill-opacity="0.42">チ</text>
<text x="956" y="270" fill="#2b6bff" fill-opacity="0.40">ネ</text>
<text x="956" y="252" fill="#2b6bff" fill-opacity="0.38">9</text>
<text x="956" y="234" fill="#2b6bff" fill-opacity="0.35">2</text>
<text x="956" y="216" fill="#2b6bff" fill-opacity="0.33">D</text>
<text x="956" y="198" fill="#2b6bff" fill-opacity="0.31">F</text>
<text x="956" y="180" fill="#2b6bff" fill-opacity="0.29">レ</text>
<text x="956" y="162" fill="#2b6bff" fill-opacity="0.27">レ</text>
<text x="956" y="144" fill="#2b6bff" fill-opacity="0.25">:</text>
<text x="956" y="126" fill="#2b6bff" fill-opacity="0.23">ノ</text>
<text x="956" y="108" fill="#2b6bff" fill-opacity="0.21">ヲ</text>
<text x="956" y="90" fill="#2b6bff" fill-opacity="0.19">ノ</text>
<text x="956" y="72" fill="#2b6bff" fill-opacity="0.17">ツ</text>
<text x="956" y="54" fill="#2b6bff" fill-opacity="0.15">8</text>
<text x="956" y="36" fill="#2b6bff" fill-opacity="0.12">ト</text>
<text x="956" y="18" fill="#2b6bff" fill-opacity="0.10">ソ</text>
<text x="956" y="0" fill="#2b6bff" fill-opacity="0.08">1</text>
<text x="992" y="378" fill="#dff0ff" fill-opacity="0.75">ニ</text>
<text x="992" y="360" fill="#2b6bff" fill-opacity="0.48">ヤ</text>
<text x="992" y="342" fill="#2b6bff" fill-opacity="0.46">C</text>
<text x="992" y="324" fill="#2b6bff" fill-opacity="0.43">ヌ</text>
<text x="992" y="306" fill="#2b6bff" fill-opacity="0.41">コ</text>
<text x="992" y="288" fill="#2b6bff" fill-opacity="0.39">ク</text>
<text x="992" y="270" fill="#2b6bff" fill-opacity="0.37">ニ</text>
<text x="992" y="252" fill="#2b6bff" fill-opacity="0.35">:</text>
<text x="992" y="234" fill="#2b6bff" fill-opacity="0.33">ト</text>
<text x="992" y="216" fill="#2b6bff" fill-opacity="0.30">ヒ</text>
<text x="992" y="198" fill="#2b6bff" fill-opacity="0.28">5</text>
<text x="992" y="180" fill="#2b6bff" fill-opacity="0.26">0</text>
<text x="992" y="162" fill="#2b6bff" fill-opacity="0.24">セ</text>
<text x="992" y="144" fill="#2b6bff" fill-opacity="0.22">ヘ</text>
<text x="992" y="126" fill="#2b6bff" fill-opacity="0.20">フ</text>
<text x="992" y="108" fill="#2b6bff" fill-opacity="0.17">2</text>
<text x="992" y="90" fill="#2b6bff" fill-opacity="0.15">シ</text>
<text x="992" y="72" fill="#2b6bff" fill-opacity="0.13">ケ</text>
<text x="992" y="54" fill="#2b6bff" fill-opacity="0.11">D</text>
<text x="992" y="36" fill="#2b6bff" fill-opacity="0.09">ノ</text>
<text x="992" y="18" fill="#2b6bff" fill-opacity="0.07">メ</text>
<text x="992" y="0" fill="#2b6bff" fill-opacity="0.05">ン</text>
<text x="1010" y="648" fill="#2b6bff" fill-opacity="0.44">ヤ</text>
<text x="1010" y="630" fill="#2b6bff" fill-opacity="0.42">テ</text>
<text x="1010" y="612" fill="#2b6bff" fill-opacity="0.39">ヲ</text>
<text x="1010" y="594" fill="#2b6bff" fill-opacity="0.36">ノ</text>
<text x="1010" y="576" fill="#2b6bff" fill-opacity="0.33">ナ</text>
<text x="1010" y="558" fill="#2b6bff" fill-opacity="0.31">ワ</text>
<text x="1010" y="540" fill="#2b6bff" fill-opacity="0.28">C</text>
<text x="1010" y="522" fill="#2b6bff" fill-opacity="0.25">ヌ</text>
<text x="1010" y="504" fill="#2b6bff" fill-opacity="0.22">コ</text>
<text x="1010" y="486" fill="#2b6bff" fill-opacity="0.19">マ</text>
<text x="1010" y="468" fill="#2b6bff" fill-opacity="0.17">9</text>
<text x="1010" y="450" fill="#2b6bff" fill-opacity="0.14">&gt;</text>
<text x="1010" y="432" fill="#2b6bff" fill-opacity="0.11">マ</text>
<text x="1010" y="414" fill="#2b6bff" fill-opacity="0.08">3</text>
<text x="1010" y="396" fill="#2b6bff" fill-opacity="0.06">ヲ</text>
<text x="1010" y="378" fill="#2b6bff" fill-opacity="0.05">ム</text>
<text x="1046" y="72" fill="#dff0ff" fill-opacity="0.75">エ</text>
<text x="1046" y="54" fill="#2b6bff" fill-opacity="0.45">*</text>
<text x="1046" y="36" fill="#2b6bff" fill-opacity="0.40">イ</text>
<text x="1046" y="18" fill="#2b6bff" fill-opacity="0.35">6</text>
<text x="1046" y="0" fill="#2b6bff" fill-opacity="0.30">ノ</text>
<text x="1082" y="576" fill="#dff0ff" fill-opacity="0.75">モ</text>
<text x="1082" y="558" fill="#2b6bff" fill-opacity="0.48">ナ</text>
<text x="1082" y="540" fill="#2b6bff" fill-opacity="0.45">D</text>
<text x="1082" y="522" fill="#2b6bff" fill-opacity="0.43">タ</text>
<text x="1082" y="504" fill="#2b6bff" fill-opacity="0.41">フ</text>
<text x="1082" y="486" fill="#2b6bff" fill-opacity="0.39">F</text>
<text x="1082" y="468" fill="#2b6bff" fill-opacity="0.36">ミ</text>
<text x="1082" y="450" fill="#2b6bff" fill-opacity="0.34">:</text>
<text x="1082" y="432" fill="#2b6bff" fill-opacity="0.32">オ</text>
<text x="1082" y="414" fill="#2b6bff" fill-opacity="0.30">ロ</text>
<text x="1082" y="396" fill="#2b6bff" fill-opacity="0.27">ヘ</text>
<text x="1082" y="378" fill="#2b6bff" fill-opacity="0.25">3</text>
<text x="1082" y="360" fill="#2b6bff" fill-opacity="0.23">ヨ</text>
<text x="1082" y="342" fill="#2b6bff" fill-opacity="0.20">チ</text>
<text x="1082" y="324" fill="#2b6bff" fill-opacity="0.18">キ</text>
<text x="1082" y="306" fill="#2b6bff" fill-opacity="0.16">ユ</text>
<text x="1082" y="288" fill="#2b6bff" fill-opacity="0.14">ホ</text>
<text x="1082" y="270" fill="#2b6bff" fill-opacity="0.11">テ</text>
<text x="1082" y="252" fill="#2b6bff" fill-opacity="0.09">ホ</text>
<text x="1082" y="234" fill="#2b6bff" fill-opacity="0.07">A</text>
<text x="1082" y="216" fill="#2b6bff" fill-opacity="0.05">チ</text>
<text x="1082" y="198" fill="#2b6bff" fill-opacity="0.05">ヤ</text>
<text x="1100" y="144" fill="#dff0ff" fill-opacity="0.75">セ</text>
<text x="1100" y="126" fill="#2b6bff" fill-opacity="0.48">リ</text>
<text x="1100" y="108" fill="#2b6bff" fill-opacity="0.45">イ</text>
<text x="1100" y="90" fill="#2b6bff" fill-opacity="0.43">C</text>
<text x="1100" y="72" fill="#2b6bff" fill-opacity="0.40">:</text>
<text x="1100" y="54" fill="#2b6bff" fill-opacity="0.38">ウ</text>
<text x="1100" y="36" fill="#2b6bff" fill-opacity="0.36">ハ</text>
<text x="1100" y="18" fill="#2b6bff" fill-opacity="0.33">9</text>
<text x="1100" y="0" fill="#2b6bff" fill-opacity="0.31">2</text>
<text x="1118" y="396" fill="#dff0ff" fill-opacity="0.75">ム</text>
<text x="1118" y="378" fill="#2b6bff" fill-opacity="0.48">8</text>
<text x="1118" y="360" fill="#2b6bff" fill-opacity="0.45">リ</text>
<text x="1118" y="342" fill="#2b6bff" fill-opacity="0.43">ユ</text>
<text x="1118" y="324" fill="#2b6bff" fill-opacity="0.41">ト</text>
<text x="1118" y="306" fill="#2b6bff" fill-opacity="0.39">&gt;</text>
<text x="1118" y="288" fill="#2b6bff" fill-opacity="0.36">マ</text>
<text x="1118" y="270" fill="#2b6bff" fill-opacity="0.34">イ</text>
<text x="1118" y="252" fill="#2b6bff" fill-opacity="0.32">ミ</text>
<text x="1118" y="234" fill="#2b6bff" fill-opacity="0.30">1</text>
<text x="1118" y="216" fill="#2b6bff" fill-opacity="0.27">1</text>
<text x="1118" y="198" fill="#2b6bff" fill-opacity="0.25">:</text>
<text x="1118" y="180" fill="#2b6bff" fill-opacity="0.23">9</text>
<text x="1118" y="162" fill="#2b6bff" fill-opacity="0.20">ユ</text>
<text x="1118" y="144" fill="#2b6bff" fill-opacity="0.18">ア</text>
<text x="1118" y="126" fill="#2b6bff" fill-opacity="0.16">9</text>
<text x="1118" y="108" fill="#2b6bff" fill-opacity="0.14">ナ</text>
<text x="1118" y="90" fill="#2b6bff" fill-opacity="0.11">ト</text>
<text x="1118" y="72" fill="#2b6bff" fill-opacity="0.09">ヨ</text>
<text x="1118" y="54" fill="#2b6bff" fill-opacity="0.07">モ</text>
<text x="1118" y="36" fill="#2b6bff" fill-opacity="0.05">ス</text>
<text x="1118" y="18" fill="#2b6bff" fill-opacity="0.05">エ</text>
<text x="1190" y="522" fill="#dff0ff" fill-opacity="0.75">リ</text>
<text x="1190" y="504" fill="#2b6bff" fill-opacity="0.48">ロ</text>
<text x="1190" y="486" fill="#2b6bff" fill-opacity="0.45">C</text>
<text x="1190" y="468" fill="#2b6bff" fill-opacity="0.43">モ</text>
<text x="1190" y="450" fill="#2b6bff" fill-opacity="0.41">6</text>
<text x="1190" y="432" fill="#2b6bff" fill-opacity="0.39">+</text>
<text x="1190" y="414" fill="#2b6bff" fill-opacity="0.36">ル</text>
<text x="1190" y="396" fill="#2b6bff" fill-opacity="0.34">ル</text>
<text x="1190" y="378" fill="#2b6bff" fill-opacity="0.32">ヌ</text>
<text x="1190" y="360" fill="#2b6bff" fill-opacity="0.30">コ</text>
<text x="1190" y="342" fill="#2b6bff" fill-opacity="0.27">メ</text>
<text x="1190" y="324" fill="#2b6bff" fill-opacity="0.25">ラ</text>
<text x="1190" y="306" fill="#2b6bff" fill-opacity="0.23">フ</text>
<text x="1190" y="288" fill="#2b6bff" fill-opacity="0.20">4</text>
<text x="1190" y="270" fill="#2b6bff" fill-opacity="0.18">ヌ</text>
<text x="1190" y="252" fill="#2b6bff" fill-opacity="0.16">ソ</text>
<text x="1190" y="234" fill="#2b6bff" fill-opacity="0.14">C</text>
<text x="1190" y="216" fill="#2b6bff" fill-opacity="0.11">C</text>
<text x="1190" y="198" fill="#2b6bff" fill-opacity="0.09">ワ</text>
<text x="1190" y="180" fill="#2b6bff" fill-opacity="0.07">0</text>
<text x="1190" y="162" fill="#2b6bff" fill-opacity="0.05">シ</text>
<text x="1190" y="144" fill="#2b6bff" fill-opacity="0.05">5</text>
</g>
<rect width="1200" height="630" fill="url(#vignette)"/>
<rect width="1200" height="220" fill="url(#topglow)"/>
<text x="64" y="86" font-size="30" font-weight="bold" letter-spacing="9" fill="#4da3ff" filter="url(#glow)">BLUECORE</text>
<text x="64" y="116" font-size="15" letter-spacing="3" fill="#5b7fc4">LAB NOTES · NETWORK ACCESS · IDENTITY · POLICY</text>
<text font-size="56" font-weight="bold" fill="#4da3ff" filter="url(#soft)"><tspan x="60" y="208">EAP-TLS on</tspan><tspan x="60" y="270">Cisco ISE 3.5</tspan></text>
<text font-size="23" fill="#dff0ff"><tspan x="64" y="322">What the defaults let through,</tspan><tspan x="64" y="352">tested without a single switch</tspan></text>
<text x="64" y="408" font-size="19"><tspan fill="#4da3ff" font-weight="bold">01</tspan><tspan fill="#8fb4e8" dx="14">revocation off after CA import</tspan></text>
<text x="64" y="440" font-size="19"><tspan fill="#4da3ff" font-weight="bold">02</tspan><tspan fill="#8fb4e8" dx="14">OCSP down: fails open</tspan></text>
<text x="64" y="472" font-size="19"><tspan fill="#4da3ff" font-weight="bold">03</tspan><tspan fill="#8fb4e8" dx="14">24-hour OCSP cache</tspan></text>
<text x="64" y="504" font-size="19"><tspan fill="#4da3ff" font-weight="bold">04</tspan><tspan fill="#8fb4e8" dx="14">clientAuth not enforced</tspan></text>
<text x="64" y="536" font-size="19"><tspan fill="#4da3ff" font-weight="bold">05</tspan><tspan fill="#8fb4e8" dx="14">MAC binding is literal</tspan></text>
<text x="64" y="596" font-size="17" letter-spacing="1" fill="#5b7fc4">bluecore.joburg/blog</text>
<rect x="628" y="118" width="512" height="356" fill="#030b1c" fill-opacity="0.94" stroke="#2b6bff" stroke-width="1.5"/>
<rect x="628" y="118" width="512" height="34" fill="#0a1f4d" fill-opacity="0.8"/>
<circle cx="648" cy="135" r="5" fill="#5b7fc4"/>
<circle cx="666" cy="135" r="5" fill="#2b6bff"/>
<circle cx="684" cy="135" r="5" fill="#4da3ff"/>
<text x="884.0" y="140" font-size="14" fill="#8fb4e8" text-anchor="middle">test-host : one negative test</text>
<text x="650" y="188" font-size="16" fill="#5b7fc4" xml:space="preserve" style="white-space:pre"># responder stopped on purpose</text>
<text x="650" y="215" font-size="16" fill="#dff0ff" xml:space="preserve" style="white-space:pre">$ sudo systemctl stop lab-ocsp</text>
<text x="650" y="269" font-size="16" fill="#dff0ff" xml:space="preserve" style="white-space:pre">$ eapol_test -c office-revoked.conf \</text>
<text x="650" y="296" font-size="16" fill="#dff0ff" xml:space="preserve" style="white-space:pre">    -a 192.0.2.10 -s "$SECRET" -r0</text>
<text x="650" y="323" font-size="16" fill="#8fb4e8" xml:space="preserve" style="white-space:pre">RADIUS message: code=2 (Access-Accept)</text>
<text x="650" y="350" font-size="16" fill="#8fb4e8" xml:space="preserve" style="white-space:pre">   Attribute 81 (Tunnel-Private-Group-Id)</text>
<text x="650" y="377" font-size="16" fill="#8fb4e8" xml:space="preserve" style="white-space:pre">      Value: 013130</text>
<text x="650" y="404" font-size="16" fill="#4da3ff" xml:space="preserve" style="white-space:pre">SUCCESS</text>
<rect x="644" y="422" width="480" height="36" fill="#ffb84d" fill-opacity="0.08" stroke="#ffb84d" stroke-width="1.2"/>
<text x="658" y="446" font-size="17" font-weight="bold" fill="#ffb84d">! revoked certificate, office VLAN 10</text>
<text x="1140" y="508" font-size="16" fill="#5b7fc4" text-anchor="end">openssl · eapol_test · radclient</text>
<rect width="1200" height="630" fill="url(#scan)"/>
<rect x="0.75" y="0.75" width="1198.5" height="628.5" fill="none" stroke="#123a8a" stroke-width="1.5"/>
</svg>
